<svg width="60" height="60" viewBox="0 0 60 60" fill="none" xmlns="http://www.w3.org/2000/svg">
<rect width="60" height="60" rx="10" fill="#37474F"/>
<path d="M35.0313 26.478C34.8572 26.478 34.6903 26.545 34.5673 26.6641C34.4442 26.7833 34.375 26.945 34.375 27.1135V29.8671C34.375 36.6507 25.625 36.6401 25.625 29.8671V27.1135C25.625 26.945 25.5559 26.7833 25.4328 26.6641C25.3098 26.545 25.1428 26.478 24.9688 26.478H16.6618C16.5751 26.478 16.4893 26.4946 16.4094 26.5269C16.3294 26.5592 16.2568 26.6064 16.1958 26.666C16.1348 26.7256 16.0865 26.7963 16.0539 26.874C16.0212 26.9517 16.0048 27.0349 16.0055 27.1188C16.011 28.252 16.0383 29.2529 16.0055 29.9413C16.0055 37.9163 23.4523 43 30.0465 43C36.6407 43 43.9918 37.9163 43.9918 29.936C43.959 29.2582 43.9809 28.1885 43.9918 27.1188C43.9926 27.0349 43.9761 26.9517 43.9435 26.874C43.9108 26.7963 43.8626 26.7256 43.8016 26.666C43.7406 26.6064 43.668 26.5592 43.588 26.5269C43.508 26.4946 43.4222 26.478 43.3356 26.478H35.0313Z" fill="#FF0000"/>
<path d="M34.5618 26.6641C34.6848 26.545 34.8518 26.478 35.0258 26.478H43.3301C43.4167 26.478 43.5025 26.4946 43.5825 26.5269C43.6625 26.5592 43.7351 26.6064 43.7961 26.666C43.8571 26.7256 43.9053 26.7963 43.938 26.874C43.9706 26.9517 43.9871 27.0349 43.9864 27.1188C43.9754 28.1885 43.9535 29.2582 43.9864 29.936C43.9864 37.9163 36.6353 43 30.041 43C23.4468 43 16 37.9163 16 29.9413C16.0328 29.2529 16.0055 28.252 16 27.1188C15.9993 27.0349 16.0157 26.9517 16.0484 26.874C16.0811 26.7963 16.1293 26.7256 16.1903 26.666C16.2513 26.6064 16.3239 26.5592 16.4039 26.5269C16.4838 26.4946 16.5696 26.478 16.6563 26.478H24.9633C25.1374 26.478 25.3043 26.545 25.4273 26.6641C25.5504 26.7833 25.6196 26.945 25.6196 27.1135V29.8671C25.6196 36.6401 34.3696 36.6507 34.3696 29.8671V27.1135C34.3696 26.945 34.4387 26.7833 34.5618 26.6641Z" fill="#FF0000"/>
<path d="M16.6562 24.7782H24.9726C25.0587 24.7785 25.1439 24.7622 25.2235 24.7304C25.303 24.6985 25.3752 24.6516 25.4359 24.5925C25.4966 24.5334 25.5446 24.4632 25.577 24.386C25.6095 24.3088 25.6258 24.2261 25.625 24.1428V19.9064C25.625 19.4008 25.4176 18.9159 25.0484 18.5584C24.6792 18.2008 24.1784 18 23.6562 18H17.9688C17.4466 18 16.9458 18.2008 16.5766 18.5584C16.2074 18.9159 16 19.4008 16 19.9064V24.1428C16 24.3113 16.0691 24.4729 16.1922 24.5921C16.3153 24.7113 16.4822 24.7782 16.6562 24.7782Z" fill="#DEDEDE"/>
<path d="M44 19.9064V24.1481C44.0001 24.2313 43.9831 24.3137 43.9501 24.3905C43.9171 24.4674 43.8686 24.5371 43.8076 24.5957C43.7466 24.6543 43.6742 24.7006 43.5946 24.7319C43.5149 24.7633 43.4297 24.779 43.3438 24.7782H35.0312C34.8572 24.7782 34.6903 24.7113 34.5672 24.5921C34.4441 24.4729 34.375 24.3113 34.375 24.1428V19.9064C34.375 19.4008 34.5824 18.9159 34.9516 18.5584C35.3208 18.2008 35.8216 18 36.3438 18H42.0312C42.5534 18 43.0542 18.2008 43.4234 18.5584C43.7926 18.9159 44 19.4008 44 19.9064Z" fill="#DEDEDE"/>
</svg>
