<svg width="24" height="29" viewBox="0 0 24 29" fill="none" xmlns="http://www.w3.org/2000/svg">
<path d="M23.1357 17.5078L13.0107 27.6328C12.6923 27.9471 12.2629 28.1234 11.8154 28.1234C11.368 28.1234 10.9386 27.9471 10.6201 27.6328L0.495115 17.5078C0.178098 17.1908 0 16.7608 0 16.3125C0 15.8642 0.178098 15.4342 0.495115 15.1172C0.812131 14.8002 1.2421 14.6221 1.69043 14.6221C2.13876 14.6221 2.56872 14.8002 2.88574 15.1172L10.1279 22.3594V1.6875C10.1279 1.23995 10.3057 0.810725 10.6222 0.494257C10.9387 0.17779 11.3679 0 11.8154 0C12.263 0 12.6922 0.17779 13.0087 0.494257C13.3251 0.810725 13.5029 1.23995 13.5029 1.6875V22.3594L20.7451 15.1172C21.0621 14.8002 21.4921 14.6221 21.9404 14.6221C22.3888 14.6221 22.8187 14.8002 23.1357 15.1172C23.4528 15.4342 23.6309 15.8642 23.6309 16.3125C23.6309 16.7608 23.4528 17.1908 23.1357 17.5078Z" fill="#B99103"/>
</svg>
