<svg width="24" height="29" viewBox="0 0 24 29" fill="none" xmlns="http://www.w3.org/2000/svg">
<path d="M0.495121 10.6155L10.6201 0.490479C10.9386 0.176163 11.368 -7.43866e-05 11.8154 -7.43866e-05C12.2629 -7.43866e-05 12.6923 0.176163 13.0107 0.490479L23.1357 10.6155C23.4528 10.9325 23.6309 11.3625 23.6309 11.8108C23.6309 12.2591 23.4528 12.6891 23.1357 13.0061C22.8187 13.3231 22.3888 13.5012 21.9404 13.5012C21.4921 13.5012 21.0621 13.3231 20.7451 13.0061L13.5029 5.76392L13.5029 26.4358C13.5029 26.8833 13.3251 27.3126 13.0087 27.629C12.6922 27.9455 12.263 28.1233 11.8154 28.1233C11.3679 28.1233 10.9387 27.9455 10.6222 27.629C10.3057 27.3126 10.1279 26.8833 10.1279 26.4358L10.1279 5.76392L2.88575 13.0061C2.56873 13.3231 2.13876 13.5012 1.69043 13.5012C1.2421 13.5012 0.812136 13.3231 0.495121 13.0061C0.178104 12.6891 5.72205e-06 12.2591 5.72205e-06 11.8108C5.72205e-06 11.3625 0.178104 10.9325 0.495121 10.6155Z" fill="#03B920"/>
</svg>
